<?xml version="1.0" encoding="UTF-8"?>
<svg width="17px" height="14px" viewBox="0 0 17 14" version="1.1" xmlns="http://www.w3.org/2000/svg" xmlns:xlink="http://www.w3.org/1999/xlink">
    <title>Icon Shape</title>
    <g id="1200---Profile---Web" stroke="none" stroke-width="1" fill="none" fill-rule="evenodd">
        <g id="Profile---Add-Friend-Copy" transform="translate(-968.000000, -427.000000)" fill="#7EB4C0" fill-rule="nonzero">
            <path d="M984.565234,430.394066 L974.900394,440.147711 C974.511659,440.540017 973.878501,440.542913 973.486195,440.154178 C973.484093,440.152096 973.482,440.150003 973.479917,440.147902 L969.004595,435.633888 C968.617915,435.243866 968.618149,434.61498 969.00512,434.225246 L969.971277,433.252187 C970.360409,432.860276 970.99357,432.858022 971.385482,433.247154 C971.386893,433.248556 971.388301,433.249962 971.389704,433.251372 L974.190252,436.065449 L974.190252,436.065449 L982.179754,428.01365 C982.568758,427.621612 983.201919,427.619154 983.593957,428.008158 C983.595718,428.009906 983.597472,428.01166 983.59922,428.01342 L984.56452,428.985615 C984.951416,429.375275 984.951735,430.004014 984.565234,430.394066 Z" id="Icon-Shape"></path>
        </g>
    </g>
</svg>