<?xml version="1.0" encoding="UTF-8"?>
<svg width="11px" height="13px" viewBox="0 0 11 13" version="1.1" xmlns="http://www.w3.org/2000/svg" xmlns:xlink="http://www.w3.org/1999/xlink">
    <title>Icon Shape</title>
    <g id="1200---Profile---Web" stroke="none" stroke-width="1" fill="none" fill-rule="evenodd" opacity="0.800000012">
        <g id="Profile---Add-Friend-Copy" transform="translate(-267.000000, -417.000000)" fill="#6E6E7A" fill-rule="nonzero">
            <g id="Group-15" transform="translate(100.500000, 405.000000)">
                <g id="Group-5" transform="translate(0.500000, 0.000000)">
                    <path d="M171.055556,21.9047619 C171.753582,21.9047619 172.319444,21.3504478 172.319444,20.6666667 C172.319444,19.9828855 171.753582,19.4285714 171.055556,19.4285714 C170.357529,19.4285714 169.791667,19.9828855 169.791667,20.6666667 C169.791667,21.3504478 170.357529,21.9047619 171.055556,21.9047619 M174.847222,16.3333333 C175.545249,16.3333333 176.111111,16.8876475 176.111111,17.5714286 L176.111111,23.7619048 C176.111111,24.4456859 175.545249,25 174.847222,25 L167.263889,25 C166.565862,25 166,24.4456859 166,23.7619048 L166,17.5714286 C166,16.8876475 166.565862,16.3333333 167.263889,16.3333333 L167.895833,16.3333333 L167.895833,15.0952381 C167.895833,13.3857853 169.310489,12 171.055556,12 C171.893566,12 172.697254,12.3261045 173.289817,12.9065742 C173.882379,13.487044 174.215278,14.2743299 174.215278,15.0952381 L174.215278,16.3333333 L174.847222,16.3333333 M171.055556,13.2380952 C170.008516,13.2380952 169.159722,14.0695664 169.159722,15.0952381 L169.159722,16.3333333 L172.951389,16.3333333 L172.951389,15.0952381 C172.951389,14.0695664 172.102595,13.2380952 171.055556,13.2380952 Z" id="Icon-Shape"></path>
                </g>
            </g>
        </g>
    </g>
</svg>