<?xml version="1.0" encoding="UTF-8"?>
<svg width="169px" height="199px" viewBox="0 0 169 199" version="1.1" xmlns="http://www.w3.org/2000/svg" xmlns:xlink="http://www.w3.org/1999/xlink">
    <title>Icon Shape</title>
    <g id="1200---Profile---Web" stroke="none" stroke-width="1" fill="none" fill-rule="evenodd" opacity="0.1">
        <g id="Profile---Add-Friend-Copy" transform="translate(-961.000000, -547.000000)" fill="#9B9B9B" fill-rule="nonzero">
            <g id="Icon-Shape" transform="translate(70.000000, 517.500000)">
                <path d="M987.555556,218.952381 C1000.87175,218.952381 1011.66667,208.377773 1011.66667,195.333333 C1011.66667,182.288894 1000.87175,171.714286 987.555556,171.714286 C974.239357,171.714286 963.444444,182.288894 963.444444,195.333333 C963.444444,208.377773 974.239357,218.952381 987.555556,218.952381 M1059.88889,112.666667 C1073.20509,112.666667 1084,123.241274 1084,136.285714 L1084,254.380952 C1084,267.425392 1073.20509,278 1059.88889,278 L915.222222,278 C901.906023,278 891.111111,267.425392 891.111111,254.380952 L891.111111,136.285714 C891.111111,123.241274 901.906023,112.666667 915.222222,112.666667 L927.277778,112.666667 L927.277778,89.047619 C927.277778,56.4365195 954.265058,30 987.555556,30 C1003.54222,30 1018.8741,36.2210706 1030.17838,47.2946472 C1041.48266,58.3682238 1047.83333,73.3872168 1047.83333,89.047619 L1047.83333,112.666667 L1059.88889,112.666667 M987.555556,53.6190476 C967.581257,53.6190476 951.388889,69.4809593 951.388889,89.047619 L951.388889,112.666667 L1023.72222,112.666667 L1023.72222,89.047619 C1023.72222,69.4809593 1007.52985,53.6190476 987.555556,53.6190476 Z"></path>
            </g>
        </g>
    </g>
</svg>